<svg xmlns="http://www.w3.org/2000/svg" xmlns:xlink="http://www.w3.org/1999/xlink" version="1.1" id="Layer_1" shape-rendering="crispEdges" x="0px" y="0px" viewBox="0 0 450 165" style="enable-background:new 0 0 455 165;" xml:space="preserve" preserveAspectRatio="xMidYMid meet" role="img">
<style type="text/css">
	.st0{fill:#FFFFFF;}
</style>
    <polygon class="st0" points="440,10 440,5 435,5 430,5 425,5 420,5 415,5 410,5 405,5 400,5 395,5 390,5 385,5 380,5 375,5 370,5   365,5 360,5 355,5 350,5 345,5 340,5 335,5 330,5 325,5 320,5 315,5 310,5 305,5 300,5 295,5 290,5 285,5 280,5 275,5 270,5 265,5   260,5 255,5 250,5 245,5 240,5 235,5 230,5 225,5 220,5 215,5 210,5 205,5 200,5 195,5 190,5 185,5 180,5 175,5 170,5 165,5 160,5   155,5 150,5 145,5 140,5 135,5 130,5 125,5 120,5 115,5 110,5 105,5 100,5 95,5 90,5 85,5 80,5 75,5 70,5 65,5 60,5 55,5 50,5 45,5   40,5 35,5 30,5 25,5 20,5 15,5 10,5 10,10 5,10 5,15 5,20 5,25 5,30 5,35 5,40 5,45 5,50 5,55 5,60 5,65 5,70 5,75 5,80 5,85 5,90   5,95 5,100 5,105 5,110 5,115 5,120 5,125 5,130 5,135 5,140 5,145 5,150 5,155 10,155 10,160 15,160 20,160 25,160 30,160 35,160   40,160 45,160 50,160 55,160 60,160 65,160 70,160 75,160 80,160 85,160 90,160 95,160 100,160 105,160 110,160 115,160 120,160   125,160 130,160 135,160 140,160 145,160 150,160 155,160 160,160 165,160 170,160 175,160 180,160 185,160 190,160 195,160   200,160 205,160 210,160 215,160 220,160 225,160 230,160 235,160 240,160 245,160 250,160 255,160 260,160 265,160 270,160   275,160 280,160 285,160 290,160 295,160 300,160 305,160 310,160 315,160 320,160 325,160 330,160 335,160 340,160 345,160   350,160 355,160 360,160 365,160 370,160 375,160 380,160 385,160 390,160 395,160 400,160 405,160 410,160 415,160 420,160   425,160 430,160 435,160 440,160 440,155 445,155 445,150 445,145 445,140 445,135 445,130 445,125 445,120 445,115 445,110   445,105 445,100 445,95 445,90 445,85 445,80 445,75 445,70 445,65 445,60 445,55 445,50 445,45 445,40 445,35 445,30 445,25   445,20 445,15 445,10"/>
    <g>
	<polygon points="20,5 25,5 30,5 35,5 40,5 45,5 50,5 55,5 60,5 65,5 70,5 75,5 80,5 85,5 90,5 95,5 100,5 105,5 110,5 115,5 120,5    125,5 130,5 135,5 140,5 145,5 150,5 155,5 160,5 165,5 170,5 175,5 180,5 185,5 190,5 195,5 200,5 205,5 210,5 215,5 220,5 225,5    230,5 235,5 240,5 245,5 250,5 255,5 260,5 265,5 270,5 275,5 280,5 285,5 290,5 295,5 300,5 305,5 310,5 315,5 320,5 325,5 330,5    335,5 340,5 345,5 350,5 355,5 360,5 365,5 370,5 375,5 380,5 385,5 390,5 395,5 400,5 405,5 410,5 415,5 420,5 425,5 430,5 435,5    440,5 440,0 435,0 430,0 425,0 420,0 415,0 410,0 405,0 400,0 395,0 390,0 385,0 380,0 375,0 370,0 365,0 360,0 355,0 350,0 345,0    340,0 335,0 330,0 325,0 320,0 315,0 310,0 305,0 300,0 295,0 290,0 285,0 280,0 275,0 270,0 265,0 260,0 255,0 250,0 245,0 240,0    235,0 230,0 225,0 220,0 215,0 210,0 205,0 200,0 195,0 190,0 185,0 180,0 175,0 170,0 165,0 160,0 155,0 150,0 145,0 140,0 135,0    130,0 125,0 120,0 115,0 110,0 105,0 100,0 95,0 90,0 85,0 80,0 75,0 70,0 65,0 60,0 55,0 50,0 45,0 40,0 35,0 30,0 25,0 20,0    15,0 10,0 10,5 15,5"/>
        <rect x="5" y="5" width="5" height="5"/>
        <rect x="440" y="5" width="5" height="5"/>
        <polygon points="445,10 445,15 445,20 445,25 445,30 445,35 445,40 445,45 445,50 445,55 445,60 445,65 445,70 445,75 445,80    445,85 445,90 445,95 445,100 445,105 445,110 445,115 445,120 445,125 445,130 445,135 445,140 445,145 445,150 445,155 450,155    450,150 450,145 450,140 450,135 450,130 450,125 450,120 450,115 450,110 450,105 450,100 450,95 450,90 450,85 450,80 450,75    450,70 450,65 450,60 450,55 450,50 450,45 450,40 450,35 450,30 450,25 450,20 450,15 450,10"/>
        <polygon points="5,145 5,140 5,135 5,130 5,125 5,120 5,115 5,110 5,105 5,100 5,95 5,90 5,85 5,80 5,75 5,70 5,65 5,60 5,55 5,50    5,45 5,40 5,35 5,30 5,25 5,20 5,15 5,10 0,10 0,15 0,20 0,25 0,30 0,35 0,40 0,45 0,50 0,55 0,60 0,65 0,70 0,75 0,80 0,85 0,90    0,95 0,100 0,105 0,110 0,115 0,120 0,125 0,130 0,135 0,140 0,145 0,150 0,155 5,155 5,150"/>
        <rect x="5" y="155" width="5" height="5"/>
        <rect x="440" y="155" width="5" height="5"/>
        <polygon points="430,160 425,160 420,160 415,160 410,160 405,160 400,160 395,160 390,160 385,160 380,160 375,160 370,160    365,160 360,160 355,160 350,160 345,160 340,160 335,160 330,160 325,160 320,160 315,160 310,160 305,160 300,160 295,160    290,160 285,160 280,160 275,160 270,160 265,160 260,160 255,160 250,160 245,160 240,160 235,160 230,160 225,160 220,160    215,160 210,160 205,160 200,160 195,160 190,160 185,160 180,160 175,160 170,160 165,160 160,160 155,160 150,160 145,160    140,160 135,160 130,160 125,160 120,160 115,160 110,160 105,160 100,160 95,160 90,160 85,160 80,160 75,160 70,160 65,160    60,160 55,160 50,160 45,160 40,160 35,160 30,160 25,160 20,160 15,160 10,160 10,165 15,165 20,165 25,165 30,165 35,165 40,165    45,165 50,165 55,165 60,165 65,165 70,165 75,165 80,165 85,165 90,165 95,165 100,165 105,165 110,165 115,165 120,165 125,165    130,165 135,165 140,165 145,165 150,165 155,165 160,165 165,165 170,165 175,165 180,165 185,165 190,165 195,165 200,165    205,165 210,165 215,165 220,165 225,165 230,165 235,165 240,165 245,165 250,165 255,165 260,165 265,165 270,165 275,165    280,165 285,165 290,165 295,165 300,165 305,165 310,165 315,165 320,165 325,165 330,165 335,165 340,165 345,165 350,165    355,165 360,165 365,165 370,165 375,165 380,165 385,165 390,165 395,165 400,165 405,165 410,165 415,165 420,165 425,165    430,165 435,165 440,165 440,160 435,160"/>
</g>
</svg>