<?xml version="1.0" encoding="UTF-8" standalone="no"?>
<svg xmlns="http://www.w3.org/2000/svg"    version="1.1" width="52" height="40" id="svg2" >
  <defs id="defs4"/>
  <g transform="translate(-449.34082,-510.39997)" id="layer1">
    <g transform="translate(77.802085,10.562535)" id="g3854">
      <path d="m 387.53873,537.83743 0,-2 -2,0 -2,0 0,-2 0,-2 -4,0 -4,0 0,-2 0,-2 -2,0 -2,0 0,-6 0,-6 2,0 2,0 0,-2 0,-2 4,0 4,0 0,-2 0,-2 2,0 2,0 0,-2 0,-2 2,0 2,0 0,-2 0,-2 8,0 8,0 0,2 0,2 2,0 2,0 0,2 0,2 2,0 2,0 0,4 0,4 2,0 2,0 0,2 0,2 2,0 2,0 0,4 0,4 -2,0 -2,0 0,2 0,2 -2,0 -2,0 0,2 0,2 -6,0 -6,0 0,2 0,2 -8,0 -8,0 0,-2 z" id="path3866" style="fill:#badf56"/>
      <path d="m 387.53873,537.83743 0,-2 -2,0 -2,0 0,-2 0,-2 -4,0 -4,0 0,-2 0,-2 -2,0 -2,0 0,-6 0,-6 2,0 2,0 0,-2 0,-2 4,0 4,0 0,-2 0,-2 2,0 2,0 0,-2 0,-2 2,0 2,0 0,-2 0,-2 8,0 8,0 0,2 0,2 2,0 2,0 0,2 0,2 2,0 2,0 0,4 0,4 2,0 2,0 0,2 0,2 2,0 2,0 0,4 0,4 -2,0 -2,0 0,2 0,2 -2,0 -2,0 0,2 0,2 -6,0 -6,0 0,2 0,2 -8,0 -8,0 0,-2 z m 20,-12 0,-2 -2,0 -2,0 0,2 0,2 2,0 2,0 0,-2 z m 8,0 0,-2 -2,0 -2,0 0,2 0,2 2,0 2,0 0,-2 z m -20,-4 0,-2 2,0 2,0 0,-2 0,-2 -2,0 -2,0 0,2 0,2 -2,0 -2,0 0,2 0,2 2,0 2,0 0,-2 z m -12,-4 0,-2 -2,0 -2,0 0,2 0,2 2,0 2,0 0,-2 z m 32,0 0,-2 -2,0 -2,0 0,-4 0,-4 -2,0 -2,0 0,-2 0,-2 -8,0 -8,0 0,2 0,2 6,0 6,0 0,2 0,2 2,0 2,0 0,2 0,2 2,0 2,0 0,2 0,2 2,0 2,0 0,-2 z" id="path3864" style="fill:#9cc138"/>
      <path d="m 387.53873,537.83743 0,-2 -2,0 -2,0 0,-2 0,-2 -4,0 -4,0 0,-2 0,-2 -2,0 -2,0 0,-6 0,-6 2,0 2,0 0,-2 0,-2 4,0 4,0 0,-2 0,-2 2,0 2,0 0,-2 0,-2 2,0 2,0 0,-2 0,-2 8,0 8,0 0,2 0,2 2,0 2,0 0,2 0,2 2,0 2,0 0,4 0,4 2,0 2,0 0,2 0,2 2,0 2,0 0,4 0,4 -2,0 -2,0 0,2 0,2 -2,0 -2,0 0,2 0,2 -6,0 -6,0 0,2 0,2 -8,0 -8,0 0,-2 z m 20,-8 0,-2 6,0 6,0 0,-4 0,-4 -2,0 -2,0 0,-2 0,-2 -2,0 -2,0 0,-4 0,-4 -2,0 -2,0 0,-2 0,-2 -8,0 -8,0 0,2 0,2 -2,0 -2,0 0,2 0,2 -2,0 -2,0 0,2 0,2 -4,0 -4,0 0,4 0,4 2,0 2,0 0,-2 0,-2 2,0 2,0 0,4 0,4 2,0 2,0 0,-2 0,-2 2,0 2,0 0,2 0,2 4,0 4,0 0,2 0,2 4,0 4,0 0,-2 z m -8,-4 0,-2 2,0 2,0 0,2 0,2 -2,0 -2,0 0,-2 z m 8,-4 0,-2 2,0 2,0 0,2 0,2 -2,0 -2,0 0,-2 z m -20,-4 0,-2 2,0 2,0 0,2 0,2 -2,0 -2,0 0,-2 z m 12,-4 0,-2 2,0 2,0 0,2 0,2 -2,0 -2,0 0,-2 z m -8,-4 0,-2 2,0 2,0 0,2 0,2 -2,0 -2,0 0,-2 z" id="path3862" style="fill:#7ea31d"/>
      <path d="m 387.53873,537.83743 0,-2 -2,0 -2,0 0,-2 0,-2 -4,0 -4,0 0,-2 0,-2 -2,0 -2,0 0,-6 0,-6 2,0 2,0 0,-2 0,-2 4,0 4,0 0,-2 0,-2 2,0 2,0 0,-2 0,-2 2,0 2,0 0,-2 0,-2 8,0 8,0 0,2 0,2 2,0 2,0 0,2 0,2 2,0 2,0 0,4 0,4 2,0 2,0 0,2 0,2 2,0 2,0 0,4 0,4 -2,0 -2,0 0,2 0,2 -2,0 -2,0 0,2 0,2 -6,0 -6,0 0,2 0,2 -8,0 -8,0 0,-2 z m 12,-4 0,-2 4,0 4,0 0,-2 0,-2 6,0 6,0 0,-4 0,-4 -2,0 -2,0 0,-2 0,-2 -2,0 -2,0 0,-4 0,-4 -2,0 -2,0 0,-2 0,-2 -8,0 -8,0 0,2 0,2 -2,0 -2,0 0,2 0,2 -2,0 -2,0 0,2 0,2 -4,0 -4,0 0,4 0,4 2,0 2,0 0,-2 0,-2 2,0 2,0 0,4 0,4 2,0 2,0 0,-2 0,-2 2,0 2,0 0,2 0,2 4,0 4,0 0,2 0,2 -4,0 -4,0 0,2 0,2 4,0 4,0 0,-2 z m 0,-8 0,-2 2,0 2,0 0,2 0,2 -2,0 -2,0 0,-2 z m 8,-4 0,-2 2,0 2,0 0,2 0,2 -2,0 -2,0 0,-2 z m -20,-4 0,-2 2,0 2,0 0,2 0,2 -2,0 -2,0 0,-2 z m 12,-4 0,-2 2,0 2,0 0,2 0,2 -2,0 -2,0 0,-2 z m -8,-4 0,-2 2,0 2,0 0,2 0,2 -2,0 -2,0 0,-2 z" id="path3860" style="fill:#7ea31a"/>
      <path d="m 387.53873,537.83743 0,-2 -2,0 -2,0 0,-2 0,-2 -4,0 -4,0 0,-2 0,-2 -2,0 -2,0 0,-6 0,-6 2,0 2,0 0,-2 0,-2 4,0 4,0 0,-2 0,-2 2,0 2,0 0,-2 0,-2 2,0 2,0 0,-2 0,-2 8,0 8,0 0,2 0,2 2,0 2,0 0,2 0,2 2,0 2,0 0,4 0,4 2,0 2,0 0,2 0,2 2,0 2,0 0,4 0,4 -2,0 -2,0 0,2 0,2 -2,0 -2,0 0,2 0,2 -6,0 -6,0 0,2 0,2 -8,0 -8,0 0,-2 z m 16,-4 0,-2 6,0 6,0 0,-2 0,-2 2,0 2,0 0,-4 0,-4 -2,0 -2,0 0,-2 0,-2 -2,0 -2,0 0,-4 0,-4 -2,0 -2,0 0,-2 0,-2 -8,0 -8,0 0,2 0,2 -2,0 -2,0 0,2 0,2 -2,0 -2,0 0,2 0,2 -4,0 -4,0 0,6 0,6 4,0 4,0 0,2 0,2 2,0 2,0 0,2 0,2 8,0 8,0 0,-2 z m -16,-8 0,-2 2,0 2,0 0,2 0,2 -2,0 -2,0 0,-2 z m 12,0 0,-2 2,0 2,0 0,2 0,2 -2,0 -2,0 0,-2 z m -20,-4 0,-2 2,0 2,0 0,2 0,2 -2,0 -2,0 0,-2 z m 28,0 0,-2 2,0 2,0 0,2 0,2 -2,0 -2,0 0,-2 z m -20,-4 0,-2 2,0 2,0 0,2 0,2 -2,0 -2,0 0,-2 z m 12,-4 0,-2 2,0 2,0 0,2 0,2 -2,0 -2,0 0,-2 z m -8,-4 0,-2 2,0 2,0 0,2 0,2 -2,0 -2,0 0,-2 z" id="path3858" style="fill:#008f29"/>
      <path d="m 387.53873,537.83743 0,-2 -2,0 -2,0 0,-2 0,-2 -4,0 -4,0 0,-2 0,-2 -2,0 -2,0 0,-6 0,-6 2,0 2,0 0,-2 0,-2 4,0 4,0 0,-2 0,-2 2,0 2,0 0,-2 0,-2 2,0 2,0 0,-2 0,-2 8,0 8,0 0,2 0,2 2,0 2,0 0,2 0,2 2,0 2,0 0,4 0,4 2,0 2,0 0,2 0,2 2,0 2,0 0,4 0,4 -2,0 -2,0 0,2 0,2 -2,0 -2,0 0,2 0,2 -6,0 -6,0 0,2 0,2 -8,0 -8,0 0,-2 z m 16,-4 0,-2 6,0 6,0 0,-2 0,-2 2,0 2,0 0,-4 0,-4 -2,0 -2,0 0,-2 0,-2 -2,0 -2,0 0,-4 0,-4 -2,0 -2,0 0,-2 0,-2 -8,0 -8,0 0,2 0,2 -2,0 -2,0 0,2 0,2 -2,0 -2,0 0,2 0,2 -4,0 -4,0 0,6 0,6 4,0 4,0 0,2 0,2 2,0 2,0 0,2 0,2 8,0 8,0 0,-2 z" id="path3856" style="fill:#244900"/>
    </g>
  </g>
</svg>
