<?xml version="1.0" encoding="UTF-8" standalone="no"?>
<!-- Created with Inkscape (http://www.inkscape.org/) -->
<svg xmlns:dc="http://purl.org/dc/elements/1.1/" xmlns:cc="http://creativecommons.org/ns#" xmlns:rdf="http://www.w3.org/1999/02/22-rdf-syntax-ns#" xmlns:svg="http://www.w3.org/2000/svg" xmlns="http://www.w3.org/2000/svg" xmlns:inkscape="http://www.inkscape.org/namespaces/inkscape" xmlns:sodipodi="http://sodipodi.sourceforge.net/DTD/sodipodi-0.dtd" xmlns:ns1="http://sozi.baierouge.fr" version="1.1" width="52" height="40" id="svg2" inkscape:version="0.91 r13725" xmlns:xlink="http://www.w3.org/1999/xlink">
  <defs id="defs4"/>
  <metadata id="metadata7">
    <rdf:RDF>
      <cc:Work rdf:about="">
        <dc:format>image/svg+xml</dc:format>
        <dc:type rdf:resource="http://purl.org/dc/dcmitype/StillImage"/>
        <dc:title/>
      </cc:Work>
    </rdf:RDF>
  </metadata>
  <g transform="translate(-449.34082,-510.39997)" id="layer1">
    <g transform="translate(77.802085,10.562535)" id="g3854">
      <path d="m 387.53873,537.83743 0,-2 -2,0 -2,0 0,-2 0,-2 -4,0 -4,0 0,-2 0,-2 -2,0 -2,0 0,-6 0,-6 2,0 2,0 0,-2 0,-2 4,0 4,0 0,-2 0,-2 2,0 2,0 0,-2 0,-2 2,0 2,0 0,-2 0,-2 8,0 8,0 0,2 0,2 2,0 2,0 0,2 0,2 2,0 2,0 0,4 0,4 2,0 2,0 0,2 0,2 2,0 2,0 0,4 0,4 -2,0 -2,0 0,2 0,2 -2,0 -2,0 0,2 0,2 -6,0 -6,0 0,2 0,2 -8,0 -8,0 0,-2 z" id="path3866" style="fill:#badf56"/>
      <path d="m 387.53873,537.83743 0,-2 -2,0 -2,0 0,-2 0,-2 -4,0 -4,0 0,-2 0,-2 -2,0 -2,0 0,-6 0,-6 2,0 2,0 0,-2 0,-2 4,0 4,0 0,-2 0,-2 2,0 2,0 0,-2 0,-2 2,0 2,0 0,-2 0,-2 8,0 8,0 0,2 0,2 2,0 2,0 0,2 0,2 2,0 2,0 0,4 0,4 2,0 2,0 0,2 0,2 2,0 2,0 0,4 0,4 -2,0 -2,0 0,2 0,2 -2,0 -2,0 0,2 0,2 -6,0 -6,0 0,2 0,2 -8,0 -8,0 0,-2 z m 20,-12 0,-2 -2,0 -2,0 0,2 0,2 2,0 2,0 0,-2 z m 8,0 0,-2 -2,0 -2,0 0,2 0,2 2,0 2,0 0,-2 z m -20,-4 0,-2 2,0 2,0 0,-2 0,-2 -2,0 -2,0 0,2 0,2 -2,0 -2,0 0,2 0,2 2,0 2,0 0,-2 z m -12,-4 0,-2 -2,0 -2,0 0,2 0,2 2,0 2,0 0,-2 z m 32,0 0,-2 -2,0 -2,0 0,-4 0,-4 -2,0 -2,0 0,-2 0,-2 -8,0 -8,0 0,2 0,2 6,0 6,0 0,2 0,2 2,0 2,0 0,2 0,2 2,0 2,0 0,2 0,2 2,0 2,0 0,-2 z" id="path3864" style="fill:#9cc138"/>
      <path d="m 387.53873,537.83743 0,-2 -2,0 -2,0 0,-2 0,-2 -4,0 -4,0 0,-2 0,-2 -2,0 -2,0 0,-6 0,-6 2,0 2,0 0,-2 0,-2 4,0 4,0 0,-2 0,-2 2,0 2,0 0,-2 0,-2 2,0 2,0 0,-2 0,-2 8,0 8,0 0,2 0,2 2,0 2,0 0,2 0,2 2,0 2,0 0,4 0,4 2,0 2,0 0,2 0,2 2,0 2,0 0,4 0,4 -2,0 -2,0 0,2 0,2 -2,0 -2,0 0,2 0,2 -6,0 -6,0 0,2 0,2 -8,0 -8,0 0,-2 z m 20,-8 0,-2 6,0 6,0 0,-4 0,-4 -2,0 -2,0 0,-2 0,-2 -2,0 -2,0 0,-4 0,-4 -2,0 -2,0 0,-2 0,-2 -8,0 -8,0 0,2 0,2 -2,0 -2,0 0,2 0,2 -2,0 -2,0 0,2 0,2 -4,0 -4,0 0,4 0,4 2,0 2,0 0,-2 0,-2 2,0 2,0 0,4 0,4 2,0 2,0 0,-2 0,-2 2,0 2,0 0,2 0,2 4,0 4,0 0,2 0,2 4,0 4,0 0,-2 z m -8,-4 0,-2 2,0 2,0 0,2 0,2 -2,0 -2,0 0,-2 z m 8,-4 0,-2 2,0 2,0 0,2 0,2 -2,0 -2,0 0,-2 z m -20,-4 0,-2 2,0 2,0 0,2 0,2 -2,0 -2,0 0,-2 z m 12,-4 0,-2 2,0 2,0 0,2 0,2 -2,0 -2,0 0,-2 z m -8,-4 0,-2 2,0 2,0 0,2 0,2 -2,0 -2,0 0,-2 z" id="path3862" style="fill:#7ea31d"/>
      <path d="m 387.53873,537.83743 0,-2 -2,0 -2,0 0,-2 0,-2 -4,0 -4,0 0,-2 0,-2 -2,0 -2,0 0,-6 0,-6 2,0 2,0 0,-2 0,-2 4,0 4,0 0,-2 0,-2 2,0 2,0 0,-2 0,-2 2,0 2,0 0,-2 0,-2 8,0 8,0 0,2 0,2 2,0 2,0 0,2 0,2 2,0 2,0 0,4 0,4 2,0 2,0 0,2 0,2 2,0 2,0 0,4 0,4 -2,0 -2,0 0,2 0,2 -2,0 -2,0 0,2 0,2 -6,0 -6,0 0,2 0,2 -8,0 -8,0 0,-2 z m 12,-4 0,-2 4,0 4,0 0,-2 0,-2 6,0 6,0 0,-4 0,-4 -2,0 -2,0 0,-2 0,-2 -2,0 -2,0 0,-4 0,-4 -2,0 -2,0 0,-2 0,-2 -8,0 -8,0 0,2 0,2 -2,0 -2,0 0,2 0,2 -2,0 -2,0 0,2 0,2 -4,0 -4,0 0,4 0,4 2,0 2,0 0,-2 0,-2 2,0 2,0 0,4 0,4 2,0 2,0 0,-2 0,-2 2,0 2,0 0,2 0,2 4,0 4,0 0,2 0,2 -4,0 -4,0 0,2 0,2 4,0 4,0 0,-2 z m 0,-8 0,-2 2,0 2,0 0,2 0,2 -2,0 -2,0 0,-2 z m 8,-4 0,-2 2,0 2,0 0,2 0,2 -2,0 -2,0 0,-2 z m -20,-4 0,-2 2,0 2,0 0,2 0,2 -2,0 -2,0 0,-2 z m 12,-4 0,-2 2,0 2,0 0,2 0,2 -2,0 -2,0 0,-2 z m -8,-4 0,-2 2,0 2,0 0,2 0,2 -2,0 -2,0 0,-2 z" id="path3860" style="fill:#7ea31a"/>
      <path d="m 387.53873,537.83743 0,-2 -2,0 -2,0 0,-2 0,-2 -4,0 -4,0 0,-2 0,-2 -2,0 -2,0 0,-6 0,-6 2,0 2,0 0,-2 0,-2 4,0 4,0 0,-2 0,-2 2,0 2,0 0,-2 0,-2 2,0 2,0 0,-2 0,-2 8,0 8,0 0,2 0,2 2,0 2,0 0,2 0,2 2,0 2,0 0,4 0,4 2,0 2,0 0,2 0,2 2,0 2,0 0,4 0,4 -2,0 -2,0 0,2 0,2 -2,0 -2,0 0,2 0,2 -6,0 -6,0 0,2 0,2 -8,0 -8,0 0,-2 z m 16,-4 0,-2 6,0 6,0 0,-2 0,-2 2,0 2,0 0,-4 0,-4 -2,0 -2,0 0,-2 0,-2 -2,0 -2,0 0,-4 0,-4 -2,0 -2,0 0,-2 0,-2 -8,0 -8,0 0,2 0,2 -2,0 -2,0 0,2 0,2 -2,0 -2,0 0,2 0,2 -4,0 -4,0 0,6 0,6 4,0 4,0 0,2 0,2 2,0 2,0 0,2 0,2 8,0 8,0 0,-2 z m -16,-8 0,-2 2,0 2,0 0,2 0,2 -2,0 -2,0 0,-2 z m 12,0 0,-2 2,0 2,0 0,2 0,2 -2,0 -2,0 0,-2 z m -20,-4 0,-2 2,0 2,0 0,2 0,2 -2,0 -2,0 0,-2 z m 28,0 0,-2 2,0 2,0 0,2 0,2 -2,0 -2,0 0,-2 z m -20,-4 0,-2 2,0 2,0 0,2 0,2 -2,0 -2,0 0,-2 z m 12,-4 0,-2 2,0 2,0 0,2 0,2 -2,0 -2,0 0,-2 z m -8,-4 0,-2 2,0 2,0 0,2 0,2 -2,0 -2,0 0,-2 z" id="path3858" style="fill:#008f29"/>
      <path d="m 387.53873,537.83743 0,-2 -2,0 -2,0 0,-2 0,-2 -4,0 -4,0 0,-2 0,-2 -2,0 -2,0 0,-6 0,-6 2,0 2,0 0,-2 0,-2 4,0 4,0 0,-2 0,-2 2,0 2,0 0,-2 0,-2 2,0 2,0 0,-2 0,-2 8,0 8,0 0,2 0,2 2,0 2,0 0,2 0,2 2,0 2,0 0,4 0,4 2,0 2,0 0,2 0,2 2,0 2,0 0,4 0,4 -2,0 -2,0 0,2 0,2 -2,0 -2,0 0,2 0,2 -6,0 -6,0 0,2 0,2 -8,0 -8,0 0,-2 z m 16,-4 0,-2 6,0 6,0 0,-2 0,-2 2,0 2,0 0,-4 0,-4 -2,0 -2,0 0,-2 0,-2 -2,0 -2,0 0,-4 0,-4 -2,0 -2,0 0,-2 0,-2 -8,0 -8,0 0,2 0,2 -2,0 -2,0 0,2 0,2 -2,0 -2,0 0,2 0,2 -4,0 -4,0 0,6 0,6 4,0 4,0 0,2 0,2 2,0 2,0 0,2 0,2 8,0 8,0 0,-2 z" id="path3856" style="fill:#244900"/>
    </g>
  </g>
</svg>
